<svg xmlns="http://www.w3.org/2000/svg" width="180" height="23" viewBox="0 0 180 23">
  <g id="logo_w" transform="translate(-34.435 -35.05)">
    <path id="パス_13" data-name="パス 13" d="M-36.21-12.042A6.943,6.943,0,0,1-33.5-10.007a4.6,4.6,0,0,1,.975,2.9,5.358,5.358,0,0,1-2.2,4.749A9.495,9.495,0,0,1-40.23-.841h-7.35V-22.089h6.48a9.679,9.679,0,0,1,5.52,1.371,4.509,4.509,0,0,1,2.01,3.97,5.483,5.483,0,0,1-.69,2.786A5.156,5.156,0,0,1-36.21-12.042ZM-43.23-13.4h2.64a2.419,2.419,0,0,0,1.86-.707,2.463,2.463,0,0,0,.66-1.747,1.915,1.915,0,0,0-.75-1.631,3.38,3.38,0,0,0-2.07-.563h-2.34Zm2.79,8.661a4.607,4.607,0,0,0,2.475-.592,1.957,1.957,0,0,0,.945-1.775q0-2.252-3.72-2.252h-2.49v4.619Zm15.12-6.7a10.272,10.272,0,0,1,1.515-5.4,11.236,11.236,0,0,1,4.11-4A11.123,11.123,0,0,1-14.07-22.32a11.123,11.123,0,0,1,5.625,1.487,11.477,11.477,0,0,1,4.14,4,10.123,10.123,0,0,1,1.545,5.4A10.076,10.076,0,0,1-4.3-6.009a11.323,11.323,0,0,1-4.14,3.941A11.294,11.294,0,0,1-14.07-.61a11.269,11.269,0,0,1-5.64-1.458,11.118,11.118,0,0,1-4.1-3.941A10.225,10.225,0,0,1-25.32-11.436Zm4.5,0A6.61,6.61,0,0,0-19.9-8.03a6.754,6.754,0,0,0,2.49,2.468,6.863,6.863,0,0,0,3.5.909,6.51,6.51,0,0,0,3.39-.909,6.546,6.546,0,0,0,2.4-2.454,6.85,6.85,0,0,0,.87-3.421,6.8,6.8,0,0,0-.9-3.464A6.708,6.708,0,0,0-10.6-17.369a6.646,6.646,0,0,0-3.435-.909,6.645,6.645,0,0,0-3.435.909A6.708,6.708,0,0,0-19.92-14.9,6.8,6.8,0,0,0-20.82-11.436ZM5.79-22.089h6.6a13.8,13.8,0,0,1,6.96,1.573,9.68,9.68,0,0,1,3.975,4.071A11.839,11.839,0,0,1,24.57-11.09a9.779,9.779,0,0,1-1.5,5.4A9.941,9.941,0,0,1,19.035-2.1,12.362,12.362,0,0,1,13.47-.841H5.79ZM12.72-4.883a8.049,8.049,0,0,0,5.37-1.674,5.962,5.962,0,0,0,1.98-4.821,6.719,6.719,0,0,0-1.095-4.042,5.842,5.842,0,0,0-2.55-2.079,7.456,7.456,0,0,0-2.745-.577H10.14V-4.883ZM49.98-22.089,41.7-7.452V-.841H37.35V-7.452L29.22-22.089h5.37l5.07,9.816,4.95-9.816Z" transform="translate(164.455 58)" fill="#fff"/>
    <path id="パス_14" data-name="パス 14" d="M-20.505-22.111v4.05h-10.71v4.542h9.48v4.05h-9.48v4.6h11.13v4.05h-15.48V-22.111Zm29.01,0V.05h-.12L-7.065-13.4l.09,12.585h-4.41V-22.95h.18L4.215-9.295l-.09-12.816ZM36.315-2.959A5.913,5.913,0,0,1,34.5-1.874a16.631,16.631,0,0,1-2.88.926,12.9,12.9,0,0,1-2.865.362A13.712,13.712,0,0,1,22.59-1.9,9.8,9.8,0,0,1,18.5-5.548a9.887,9.887,0,0,1-1.44-5.309,12.226,12.226,0,0,1,1.53-6.321,9.779,9.779,0,0,1,4.11-3.877,12.586,12.586,0,0,1,5.7-1.287,15.835,15.835,0,0,1,3.78.434,14.215,14.215,0,0,1,3.12,1.128l-1.41,3.906a11.129,11.129,0,0,0-2.385-.853,10.508,10.508,0,0,0-2.535-.391,7.9,7.9,0,0,0-5.5,1.736,6.62,6.62,0,0,0-1.905,5.15,6.246,6.246,0,0,0,.93,3.428A6.033,6.033,0,0,0,25.08-5.563a8.835,8.835,0,0,0,3.8.781,6.456,6.456,0,0,0,3.03-.55V-7.906H28.1v-4.05h8.22Z" transform="translate(70 58)" fill="#fff"/>
  </g>
</svg>
