<svg xmlns="http://www.w3.org/2000/svg" width="180" height="23" viewBox="0 0 180 23">
  <g id="logo" transform="translate(-34.435 -35.05)">
    <path id="パス_13" data-name="パス 13" d="M-36.159-11.905a6.981,6.981,0,0,1,2.727,2.063,4.687,4.687,0,0,1,.979,2.94A5.447,5.447,0,0,1-34.667-2.09,9.476,9.476,0,0,1-40.2-.554H-47.58V-22.086h6.509a9.657,9.657,0,0,1,5.545,1.39,4.581,4.581,0,0,1,2.019,4.023,5.6,5.6,0,0,1-.693,2.823A5.2,5.2,0,0,1-36.159-11.905ZM-43.21-13.28h2.652A2.419,2.419,0,0,0-38.69-14a2.509,2.509,0,0,0,.663-1.77,1.947,1.947,0,0,0-.753-1.653,3.374,3.374,0,0,0-2.079-.57H-43.21Zm2.8,8.777a4.6,4.6,0,0,0,2.486-.6,1.988,1.988,0,0,0,.949-1.8q0-2.282-3.737-2.282h-2.5V-4.5Zm15.188-6.787A10.478,10.478,0,0,1-23.7-16.761a11.333,11.333,0,0,1,4.129-4.052,11.1,11.1,0,0,1,5.65-1.507,11.1,11.1,0,0,1,5.65,1.507A11.575,11.575,0,0,1-4.11-16.761a10.325,10.325,0,0,1,1.552,5.471,10.278,10.278,0,0,1-1.552,5.5A11.418,11.418,0,0,1-8.268-1.8,11.268,11.268,0,0,1-13.919-.32,11.242,11.242,0,0,1-19.584-1.8,11.213,11.213,0,0,1-23.7-5.791,10.43,10.43,0,0,1-25.22-11.291Zm4.52,0a6.743,6.743,0,0,0,.919,3.452,6.814,6.814,0,0,0,2.5,2.5,6.848,6.848,0,0,0,3.511.922,6.5,6.5,0,0,0,3.405-.922A6.607,6.607,0,0,0-7.952-7.824a6.989,6.989,0,0,0,.874-3.467,6.942,6.942,0,0,0-.9-3.511,6.769,6.769,0,0,0-2.456-2.5,6.631,6.631,0,0,0-3.45-.922,6.631,6.631,0,0,0-3.45.922A6.769,6.769,0,0,0-19.8-14.8,6.942,6.942,0,0,0-20.7-11.291Zm26.73-10.8h6.63a13.764,13.764,0,0,1,6.991,1.594,9.771,9.771,0,0,1,3.993,4.125A12.084,12.084,0,0,1,24.9-10.94a9.975,9.975,0,0,1-1.507,5.471,10.015,10.015,0,0,1-4.053,3.642,12.328,12.328,0,0,1-5.59,1.273H6.031ZM12.992-4.65a8.038,8.038,0,0,0,5.394-1.7,6.067,6.067,0,0,0,1.989-4.886,6.853,6.853,0,0,0-1.1-4.1,5.878,5.878,0,0,0-2.562-2.106,7.434,7.434,0,0,0-2.757-.585H10.4V-4.65ZM50.42-22.086,42.1-7.254v6.7h-4.37v-6.7L29.566-22.086h5.394l5.093,9.947,4.972-9.947Z" transform="translate(164.015 58)" fill="#111"/>
    <path id="パス_14" data-name="パス 14" d="M-20.505-22.111v4.05h-10.71v4.542h9.48v4.05h-9.48v4.6h11.13v4.05h-15.48V-22.111Zm29.01,0V.05h-.12L-7.065-13.4l.09,12.585h-4.41V-22.95h.18L4.215-9.295l-.09-12.816ZM36.315-2.959A5.913,5.913,0,0,1,34.5-1.874a16.631,16.631,0,0,1-2.88.926,12.9,12.9,0,0,1-2.865.362A13.712,13.712,0,0,1,22.59-1.9,9.8,9.8,0,0,1,18.5-5.548a9.887,9.887,0,0,1-1.44-5.309,12.226,12.226,0,0,1,1.53-6.321,9.779,9.779,0,0,1,4.11-3.877,12.586,12.586,0,0,1,5.7-1.287,15.835,15.835,0,0,1,3.78.434,14.215,14.215,0,0,1,3.12,1.128l-1.41,3.906a11.129,11.129,0,0,0-2.385-.853,10.508,10.508,0,0,0-2.535-.391,7.9,7.9,0,0,0-5.5,1.736,6.62,6.62,0,0,0-1.905,5.15,6.246,6.246,0,0,0,.93,3.428A6.033,6.033,0,0,0,25.08-5.563a8.835,8.835,0,0,0,3.8.781,6.456,6.456,0,0,0,3.03-.55V-7.906H28.1v-4.05h8.22Z" transform="translate(70 58)" fill="#eb51c2"/>
  </g>
</svg>
