<svg xmlns="http://www.w3.org/2000/svg" width="180" height="23" viewBox="0 0 180 23"><path d="M93.81 10.908a6.943 6.943 0 012.71 2.035 4.6 4.6 0 01.975 2.9 5.358 5.358 0 01-2.2 4.749 9.495 9.495 0 01-5.505 1.517h-7.35V.861h6.48a9.679 9.679 0 015.52 1.371 4.509 4.509 0 012.01 3.97 5.483 5.483 0 01-.69 2.786 5.156 5.156 0 01-1.95 1.92zM86.79 9.55h2.64a2.419 2.419 0 001.86-.707 2.463 2.463 0 00.66-1.747 1.915 1.915 0 00-.75-1.631 3.38 3.38 0 00-2.07-.563h-2.34zm2.79 8.661a4.607 4.607 0 002.475-.592A1.957 1.957 0 0093 15.844q0-2.252-3.72-2.252h-2.49v4.619zm15.12-6.7a10.272 10.272 0 011.515-5.4 11.236 11.236 0 014.11-4A11.123 11.123 0 01115.95.63a11.123 11.123 0 015.625 1.487 11.477 11.477 0 014.14 4 10.123 10.123 0 011.545 5.4 10.076 10.076 0 01-1.54 5.424 11.323 11.323 0 01-4.14 3.941 11.294 11.294 0 01-5.63 1.458 11.269 11.269 0 01-5.64-1.458 11.118 11.118 0 01-4.1-3.941 10.225 10.225 0 01-1.51-5.427zm4.5 0a6.61 6.61 0 00.92 3.409 6.754 6.754 0 002.49 2.468 6.863 6.863 0 003.5.909 6.51 6.51 0 003.39-.909 6.546 6.546 0 002.4-2.454 6.85 6.85 0 00.87-3.421 6.8 6.8 0 00-.9-3.464 6.708 6.708 0 00-2.45-2.468 6.646 6.646 0 00-3.435-.909 6.645 6.645 0 00-3.435.909 6.708 6.708 0 00-2.45 2.469 6.8 6.8 0 00-.9 3.464zM135.81.861h6.6a13.8 13.8 0 016.96 1.573 9.68 9.68 0 013.975 4.071 11.839 11.839 0 011.245 5.355 9.779 9.779 0 01-1.5 5.4 9.941 9.941 0 01-4.035 3.59 12.362 12.362 0 01-5.565 1.259h-7.68zm6.93 17.206a8.049 8.049 0 005.37-1.674 5.962 5.962 0 001.98-4.821 6.719 6.719 0 00-1.095-4.042 5.842 5.842 0 00-2.55-2.079 7.456 7.456 0 00-2.745-.577h-3.54v13.193zM180 .861l-8.28 14.637v6.611h-4.35v-6.611L159.24.861h5.37l5.07 9.816 4.95-9.816zM15.06.839v4.05H4.35v4.542h9.48v4.05H4.35v4.6h11.13v4.05H0V.839zm29.01 0V23h-.12L28.5 9.55l.09 12.585h-4.41V0h.18l15.42 13.655L39.69.839zm27.81 19.152a5.913 5.913 0 01-1.815 1.085 16.631 16.631 0 01-2.88.926 12.9 12.9 0 01-2.865.362 13.712 13.712 0 01-6.165-1.314 9.8 9.8 0 01-4.09-3.648 9.887 9.887 0 01-1.44-5.309 12.226 12.226 0 011.53-6.321 9.779 9.779 0 014.11-3.877 12.586 12.586 0 015.7-1.287 15.835 15.835 0 013.78.434 14.215 14.215 0 013.12 1.128l-1.41 3.906a11.129 11.129 0 00-2.385-.853 10.508 10.508 0 00-2.535-.391 7.9 7.9 0 00-5.5 1.736 6.62 6.62 0 00-1.905 5.15 6.246 6.246 0 00.93 3.428 6.033 6.033 0 002.585 2.241 8.835 8.835 0 003.8.781 6.456 6.456 0 003.03-.55v-2.574h-3.81v-4.05h8.22z" fill="#fff"/></svg>