<svg xmlns="http://www.w3.org/2000/svg" width="180" height="23" viewBox="0 0 180 23"><path d="M93.421 11.045a6.981 6.981 0 012.727 2.063 4.687 4.687 0 01.979 2.94 5.447 5.447 0 01-2.214 4.812 9.476 9.476 0 01-5.533 1.536H82V.864h6.509a9.657 9.657 0 015.545 1.39 4.581 4.581 0 012.019 4.023A5.6 5.6 0 0195.38 9.1a5.2 5.2 0 01-1.959 1.945zM86.37 9.67h2.652a2.419 2.419 0 001.868-.72 2.509 2.509 0 00.663-1.77 1.947 1.947 0 00-.753-1.653 3.374 3.374 0 00-2.079-.57H86.37zm2.8 8.777a4.6 4.6 0 002.486-.6 1.988 1.988 0 00.949-1.8q0-2.282-3.737-2.282h-2.5v4.685zm15.188-6.787a10.478 10.478 0 011.522-5.471 11.333 11.333 0 014.129-4.052 11.1 11.1 0 015.65-1.507 11.1 11.1 0 015.65 1.507 11.575 11.575 0 014.161 4.052 10.325 10.325 0 011.552 5.471 10.278 10.278 0 01-1.552 5.5 11.418 11.418 0 01-4.158 3.99 11.268 11.268 0 01-5.651 1.48 11.242 11.242 0 01-5.665-1.48 11.213 11.213 0 01-4.116-3.991 10.43 10.43 0 01-1.52-5.5zm4.52 0a6.743 6.743 0 00.919 3.452 6.814 6.814 0 002.5 2.5 6.848 6.848 0 003.511.922 6.5 6.5 0 003.405-.922 6.607 6.607 0 002.415-2.486 6.989 6.989 0 00.874-3.467 6.942 6.942 0 00-.9-3.511 6.769 6.769 0 00-2.456-2.5 6.631 6.631 0 00-3.45-.922 6.631 6.631 0 00-3.45.922 6.769 6.769 0 00-2.466 2.502 6.942 6.942 0 00-.9 3.509zm26.73-10.8h6.63a13.764 13.764 0 016.991 1.594 9.771 9.771 0 013.993 4.125 12.084 12.084 0 011.258 5.431 9.975 9.975 0 01-1.507 5.471 10.015 10.015 0 01-4.053 3.642 12.328 12.328 0 01-5.59 1.273h-7.719zm6.964 17.44a8.038 8.038 0 005.394-1.7 6.067 6.067 0 001.989-4.886 6.853 6.853 0 00-1.1-4.1 5.878 5.878 0 00-2.562-2.106 7.434 7.434 0 00-2.757-.585h-3.556V18.3zM180 .864l-8.32 14.832v6.7h-4.37v-6.7L159.146.864h5.394l5.093 9.947 4.972-9.947z" fill="#111"/><path d="M15.06.839v4.05H4.35v4.542h9.48v4.05H4.35v4.6h11.13v4.05H0V.839zm29.01 0V23h-.12L28.5 9.55l.09 12.585h-4.41V0h.18l15.42 13.655L39.69.839zm27.81 19.152a5.913 5.913 0 01-1.815 1.085 16.631 16.631 0 01-2.88.926 12.9 12.9 0 01-2.865.362 13.712 13.712 0 01-6.165-1.314 9.8 9.8 0 01-4.09-3.648 9.887 9.887 0 01-1.44-5.309 12.226 12.226 0 011.53-6.321 9.779 9.779 0 014.11-3.877 12.586 12.586 0 015.7-1.287 15.835 15.835 0 013.78.434 14.215 14.215 0 013.12 1.128l-1.41 3.906a11.129 11.129 0 00-2.385-.853 10.508 10.508 0 00-2.535-.391 7.9 7.9 0 00-5.5 1.736 6.62 6.62 0 00-1.905 5.15 6.246 6.246 0 00.93 3.428 6.033 6.033 0 002.585 2.241 8.835 8.835 0 003.8.781 6.456 6.456 0 003.03-.55v-2.574h-3.81v-4.05h8.22z" fill="#eb51c2"/></svg>